<svg xmlns="http://www.w3.org/2000/svg" xmlns:xlink="http://www.w3.org/1999/xlink" xml:space="preserve" version="1.1" style="shape-rendering:geometricPrecision;text-rendering:geometricPrecision;image-rendering:optimizeQuality;" viewBox="0 0 847 1058.75" x="0px" y="0px" fill-rule="evenodd" clip-rule="evenodd"><defs><style type="text/css">
   
    .fil0 {fill:black}
   
  </style></defs><g><path class="fil0" d="M78 565l278 -276c5,-5 12,3 8,8l-279 276c-59,59 -59,155 0,214 59,59 156,59 215,0l391 -383c5,-5 12,3 7,8l-391 383c-63,63 -166,63 -229,0 -63,-63 -63,-167 0,-230z"/><path class="fil0" d="M322 506c-5,5 -13,-3 -8,-8l325 -324c4,-5 12,3 7,8l-324 324z"/><path class="fil0" d="M541 401l-240 241c-5,5 -12,-3 -8,-8l241 -240c5,-5 12,2 7,7z"/><path class="fil0" d="M309 435c-5,5 -12,-2 -7,-7l324 -325c5,-4 12,3 7,8l-324 324z"/><path class="fil0" d="M812 198l-241 241c-5,4 -12,-3 -7,-8l240 -240c5,-5 13,2 8,7z"/><path class="fil0" d="M722 222l-149 149c-5,5 -12,-2 -7,-7l149 -149c4,-5 12,3 7,7z"/><path class="fil0" d="M814 14l-148 149c-5,5 -13,-3 -8,-8l149 -149c5,-4 12,3 7,8z"/><path class="fil0" d="M548 487l-149 149c-5,5 -13,-2 -8,-7l149 -149c5,-5 13,3 8,7z"/><path class="fil0" d="M181 584c59,0 107,48 107,107 0,59 -48,107 -107,107 -59,0 -107,-48 -107,-107 0,-59 48,-107 107,-107zm0 9c54,0 98,44 98,98 0,54 -44,98 -98,98 -54,0 -98,-44 -98,-98 0,-54 44,-98 98,-98z"/></g><text x="0" y="862" fill="#000000" font-size="5px" font-weight="bold" font-family="'Helvetica Neue', Helvetica, Arial-Unicode, Arial, Sans-serif">Created by sumhi_icon</text><text x="0" y="867" fill="#000000" font-size="5px" font-weight="bold" font-family="'Helvetica Neue', Helvetica, Arial-Unicode, Arial, Sans-serif">from the Noun Project</text></svg>